<?xml version="1.0" encoding="utf-8"?>
<!-- Generator: Adobe Illustrator 23.0.1, SVG Export Plug-In . SVG Version: 6.00 Build 0)  -->
<svg version="1.1" xmlns="http://www.w3.org/2000/svg" xmlns:xlink="http://www.w3.org/1999/xlink" x="0px" y="0px"
	 viewBox="0 0 500 389" style="enable-background:new 0 0 500 389;" xml:space="preserve">
<style type="text/css">
	.st0{fill:#FFFFFF;}
	.st1{fill:#1A2E35;}
	.st2{fill:#375A64;}
	.st3{fill:#C78976;}
	.st4{fill:#B66955;}
	.st5{fill:#FF6F61;}
	.st6{opacity:0.3;}
	.st7{fill:#FAFAFA;}
	.st8{fill:#FF4F5B;}
	.st9{opacity:0.5;}
</style>
<g id="Layer_2">
	<path class="st0" d="M318.9,13.5c0,0,7.7-7.7,18.4-8.5c0,0,9.2-3.1,21.9,4.2c0,0,19.2,10.2,15.7,35l-2,6.8l2.5,6.3l4.6,10.5
		l-15-5.7c0,0-10.9,11.3-25.4,9.4c0,0-8.3-0.2-17.5-6.6c0,0-5.1-3.9-7.6-7.9c0,0-5.6-5.2-5.9-19.1C308.1,23.7,318.9,13.5,318.9,13.5
		z"/>
</g>
<g id="Layer_1">
	<g>
		<g>
			<g>
				<g>
					<path class="st1" d="M414.5,51.4c-2.9,0.7-4.4,4.1-4.7,7.1c-0.3,3,0.1,6.2-1.2,8.9c-1.4,3.1-4.8,5.4-4.9,8.8
						c-0.1,2.1,1.2,4,1.1,6.1c-0.1,3.4-3.6,6-3.7,9.4c-0.1,2.4,1.5,4.8,1.1,7.2c-0.3,1.9-1.8,3.4-2.4,5.2c-1.2,3.6,1.2,7.5,4.4,9.6
						c3.6,2.3,8.2,2.8,12.2,1.5s7.4-4.4,9-8.3c1.8-4.3,1.4-9.2,1-13.8c-1.2-14.5-2.1-29-2.7-43.6"/>
				</g>
				<g>
					<g>
						<path class="st2" d="M406,102.6c-0.1-0.1,0.8-0.3,1.3-1.6c0.3-0.6,0.4-1.5,0.3-2.4c0-1-0.4-2-0.7-3.2
							c-0.3-1.2-0.8-2.6-0.5-4.1c0.3-1.6,1.4-2.8,2.4-4.1c0.5-0.6,1-1.3,1.4-2.1c0.3-0.7,0.4-1.6,0.2-2.4c-0.5-1.6-2.1-2.8-2.9-4.7
							c-0.4-0.9-0.4-2-0.2-2.9c0.2-0.9,0.6-1.8,1-2.6c0.8-1.6,1.6-3.1,2-4.7c0.7-3.2,0.4-6.2,0.9-8.7c0.4-2.5,1.5-4.4,2.5-5.3
							c0.5-0.5,1-0.8,1.3-0.9c0.3-0.1,0.5-0.2,0.5-0.2c0,0.1-0.7,0.3-1.7,1.3s-1.9,2.8-2.3,5.2c-0.2,1.2-0.2,2.6-0.3,4
							c-0.1,1.5-0.1,3.1-0.5,4.7c-0.3,1.7-1.2,3.2-2,4.8c-0.8,1.6-1.4,3.4-0.8,5.1s2.2,2.9,2.9,4.8c0.3,0.9,0.2,1.9-0.2,2.7
							c-0.4,0.8-0.9,1.5-1.4,2.2c-1,1.3-2.1,2.5-2.3,3.9c-0.3,1.4,0.1,2.7,0.5,3.9c0.3,1.2,0.7,2.3,0.7,3.3s-0.1,1.9-0.4,2.5
							c-0.3,0.7-0.7,1.1-1,1.3C406.2,102.6,406,102.6,406,102.6z"/>
					</g>
				</g>
			</g>
			<path class="st3" d="M398.1,126.3l-9,26l-37.6,2l-6.3,14l39.3,4c7.8,3.2,16.8-0.7,19.7-8.7l10.5-29.3L398.1,126.3z"/>
			<g>
				<g>
					<g>
						<path class="st3" d="M476,371.7c0,0-27.6-87.6-28.2-90.5c-0.5-2.6,10-65.6,11.3-81.9l-37.3,1.4c0,0,0,0.1,0,0.3l-15.8,0.9
							L420.2,381h17.2l-1.7-59.5c10.6,28.4,25.7,57.3,25.7,57.3L476,371.7z"/>
					</g>
					<g>
						<path class="st4" d="M436.4,342.8c0-0.5-0.2-19.9-0.2-19.9c-0.2,1.2-6.6-16.8-6.4-17.9C429.8,304.4,436.4,342.8,436.4,342.8z"
							/>
					</g>
				</g>
				<g>
					<path class="st4" d="M429,296.5c0,0-0.1,0.4-0.1,1.1s0,1.7,0,3c0,0.6,0.1,1.3,0.2,2s0.2,1.5,0.4,2.3c0.3,1.6,0.8,3.4,1.4,5.2
						c1.2,3.6,2.6,6.8,3.6,9.1c0.5,1,0.9,2,1.2,2.7c0.3,0.6,0.5,1,0.5,1s-0.1-0.4-0.3-1c-0.2-0.7-0.6-1.6-1-2.8
						c-0.9-2.3-2.2-5.5-3.4-9.1c-0.6-1.8-1.1-3.5-1.4-5.1c-0.2-0.8-0.3-1.6-0.4-2.3c-0.1-0.7-0.2-1.4-0.2-2
						c-0.1-1.2-0.2-2.2-0.2-2.9C429.1,296.9,429.1,296.5,429,296.5z"/>
				</g>
			</g>
			<g>
				<g>
					<g>
						<g>
							<path class="st2" d="M419.9,381.9v-1.6l17.6-0.8v6.6l-1.1,0.1c-4.8,0.3-24.5,1.1-27.8,0.1
								C405.1,385.3,419.9,381.9,419.9,381.9z"/>
						</g>
					</g>
					<g>
						<g>
							<path class="st1" d="M437.8,385.7c0,0-0.1,0-0.3,0c-0.3,0-0.5,0-0.9,0.1c-0.9,0-1.9,0.1-3.2,0.1c-2.7,0.1-6.4,0.2-10.5,0.2
								s-7.8,0-10.5-0.1c-1.3,0-2.3-0.1-3.2-0.1c-0.3,0-0.6,0-0.9,0c-0.2,0-0.3,0-0.3,0s0.1,0,0.3,0c0.3,0,0.5,0,0.9,0
								c0.9,0,1.9,0,3.2,0.1c2.7,0,6.4,0.1,10.5,0.1s7.8-0.1,10.5-0.2c1.3,0,2.3-0.1,3.2-0.1c0.3,0,0.6,0,0.9,0
								C437.7,385.7,437.8,385.7,437.8,385.7z"/>
						</g>
					</g>
					<g>
						<g>
							<path class="st1" d="M414.2,386.3c-0.1,0-0.1-0.8-0.6-1.5c-0.5-0.8-1.1-1.2-1.1-1.2c0-0.1,0.8,0.3,1.3,1.1
								S414.3,386.3,414.2,386.3z"/>
						</g>
					</g>
					<g>
						<g>
							<path class="st1" d="M419.4,383.7c0,0-0.3-0.3-0.6-0.7c-0.3-0.4-0.4-0.8-0.4-0.8s0.3,0.3,0.6,0.7
								C419.2,383.3,419.4,383.6,419.4,383.7z"/>
						</g>
					</g>
					<g>
						<g>
							<path class="st1" d="M420.8,382.9c0,0-0.3-0.1-0.6-0.4c-0.3-0.3-0.5-0.5-0.5-0.6c0,0,0.3,0.1,0.6,0.4
								C420.6,382.6,420.8,382.9,420.8,382.9z"/>
						</g>
					</g>
					<g>
						<g>
							<path class="st1" d="M421.7,381.3c0,0.1-0.4,0.1-0.9,0.1s-0.9,0-0.9-0.1s0.4-0.1,0.9-0.1
								C421.3,381.2,421.7,381.2,421.7,381.3z"/>
						</g>
					</g>
					<g>
						<g>
							<path class="st1" d="M422,380.1c0,0.1-0.4,0.3-1,0.3s-1.1-0.1-1.1-0.1c0-0.1,0.5,0,1-0.1C421.5,380.1,421.9,380,422,380.1z"
								/>
						</g>
					</g>
					<g>
						<g>
							<path class="st1" d="M418.8,382.1c0,0-0.4,0.1-1.1,0c-0.3,0-0.8-0.1-1.2-0.3c-0.2-0.1-0.4-0.1-0.7-0.3
								c-0.1-0.1-0.2-0.2-0.3-0.3c0-0.2,0-0.4,0.2-0.4c1.1-0.6,2.1,0,2.5,0.6c0.2,0.3,0.3,0.6,0.4,0.7c0,0.2,0,0.3,0,0.3
								s-0.1-0.4-0.5-1c-0.2-0.3-0.5-0.5-1-0.6c-0.4-0.1-1-0.1-1.3,0.1c-0.2,0.1-0.1,0.3,0.1,0.5c0.2,0.1,0.4,0.2,0.6,0.3
								c0.4,0.1,0.8,0.2,1.2,0.3C418.3,382.1,418.8,382.1,418.8,382.1z"/>
						</g>
					</g>
					<g>
						<g>
							<path class="st1" d="M418.5,382.2c0,0-0.2-0.3-0.1-0.8c0-0.2,0.1-0.5,0.3-0.8c0.2-0.2,0.5-0.6,0.9-0.6c0.3,0,0.4,0.3,0.3,0.5
								c0,0.2-0.1,0.4-0.2,0.5c-0.2,0.3-0.4,0.5-0.5,0.7C418.9,382.1,418.6,382.2,418.5,382.2c0.1,0,0.3-0.2,0.6-0.6
								c0.2-0.2,0.3-0.4,0.5-0.7c0.2-0.2,0.3-0.7,0-0.7s-0.6,0.3-0.7,0.5c-0.2,0.2-0.3,0.5-0.3,0.7
								C418.4,381.9,418.5,382.2,418.5,382.2z"/>
						</g>
					</g>
					<g>
						<g>
							<path class="st1" d="M437.4,380.9c0,0-0.5,0-1.3,0.1s-1.9,0.4-2.8,1.2c-0.9,0.8-1.5,1.8-1.8,2.5c-0.3,0.8-0.3,1.3-0.3,1.2
								c0,0,0-0.1,0-0.4c0-0.2,0.1-0.6,0.2-0.9c0.2-0.8,0.8-1.8,1.8-2.6c1-0.8,2.1-1.1,2.9-1.2c0.4,0,0.7,0,1,0
								C437.3,380.9,437.4,380.9,437.4,380.9z"/>
						</g>
					</g>
					<g>
						<g>
							<path class="st1" d="M429,384.3c0,0.1-1.1,0.2-2.6,0.2c-1.4,0-2.6-0.2-2.6-0.2c0-0.1,1.1,0,2.6,0
								C427.8,384.4,429,384.3,429,384.3z"/>
						</g>
					</g>
					<g>
						<g>
							<path class="st1" d="M432.4,384.3c0,0-0.1,0.2-0.2,0.5s-0.2,0.5-0.2,0.5c-0.1,0-0.1-0.3,0-0.6
								C432.1,384.4,432.4,384.3,432.4,384.3z"/>
						</g>
					</g>
					<g>
						<g>
							<path class="st1" d="M433.7,382.7c0,0-0.1,0.2-0.3,0.4c-0.2,0.2-0.4,0.3-0.4,0.3s0.1-0.2,0.3-0.4
								C433.5,382.8,433.6,382.6,433.7,382.7z"/>
						</g>
					</g>
					<g>
						<g>
							<path class="st1" d="M435.5,381.9c0,0.1-0.2,0.1-0.5,0.1c-0.3,0.1-0.4,0.2-0.5,0.2c0,0,0.1-0.3,0.4-0.4
								C435.3,381.8,435.5,381.9,435.5,381.9z"/>
						</g>
					</g>
					<g>
						<g>
							<path class="st1" d="M436.8,381.6c0,0.1-0.1,0.1-0.2,0.2s-0.3,0.1-0.3,0s0.1-0.1,0.2-0.2
								C436.7,381.5,436.8,381.5,436.8,381.6z"/>
						</g>
					</g>
				</g>
			</g>
			<g>
				<g>
					<g>
						<g>
							<path class="st2" d="M461.1,380.3l-0.7-1.5l15.7-7.9l2.8,6l-1,0.5c-4.3,2.2-21.9,11.1-25.3,11.5
								C448.9,389.5,461.1,380.3,461.1,380.3z"/>
						</g>
					</g>
					<g>
						<g>
							<path class="st1" d="M478.9,376.5c0,0-0.1,0.1-0.3,0.2c-0.2,0.1-0.5,0.3-0.8,0.4c-0.8,0.4-1.7,0.9-2.8,1.4
								c-2.4,1.2-5.7,2.8-9.5,4.5c-3.7,1.7-7.1,3.2-9.6,4.2c-1.2,0.5-2.1,0.9-2.9,1.2c-0.3,0.1-0.6,0.2-0.8,0.3
								c-0.2,0.1-0.3,0.1-0.3,0.1s0.1-0.1,0.3-0.1c0.2-0.1,0.5-0.2,0.8-0.3c0.8-0.3,1.8-0.8,2.9-1.3c2.5-1.1,5.9-2.5,9.6-4.2
								s7.1-3.3,9.5-4.4c1.1-0.5,2.1-1,2.9-1.4c0.3-0.1,0.5-0.3,0.8-0.4C478.8,376.6,478.9,376.5,478.9,376.5z"/>
						</g>
					</g>
					<g>
						<g>
							<path class="st1" d="M457.7,386.7c-0.1,0-0.4-0.6-1.2-1.1c-0.7-0.5-1.5-0.6-1.5-0.7s0.8-0.1,1.6,0.5
								C457.5,385.9,457.7,386.7,457.7,386.7z"/>
						</g>
					</g>
					<g>
						<g>
							<path class="st1" d="M461.3,382.2c0,0-0.4-0.1-0.8-0.4s-0.7-0.5-0.7-0.6c0,0,0.4,0.1,0.8,0.4
								C461,381.9,461.3,382.1,461.3,382.2z"/>
						</g>
					</g>
					<g>
						<g>
							<path class="st1" d="M462.3,380.9c0,0.1-0.3,0-0.7-0.1c-0.4-0.1-0.7-0.3-0.7-0.3c0-0.1,0.3,0,0.7,0.1
								S462.3,380.9,462.3,380.9z"/>
						</g>
					</g>
					<g>
						<g>
							<path class="st1" d="M462.4,379c0,0.1-0.3,0.3-0.8,0.5s-0.8,0.3-0.9,0.3c0-0.1,0.3-0.3,0.8-0.5
								C462,379.1,462.4,379,462.4,379z"/>
						</g>
					</g>
					<g>
						<g>
							<path class="st1" d="M462.2,377.9c0,0-0.3,0.4-0.8,0.7c-0.5,0.3-1,0.4-1,0.3s0.4-0.2,0.9-0.5
								C461.8,378.1,462.2,377.8,462.2,377.9z"/>
						</g>
					</g>
					<g>
						<g>
							<path class="st1" d="M460.1,381c0,0-0.4,0.2-1,0.5c-0.3,0.1-0.7,0.2-1.2,0.3c-0.2,0-0.5,0.1-0.7,0c-0.1,0-0.3-0.1-0.4-0.2
								s-0.1-0.3,0-0.5c0.7-1,2-0.8,2.6-0.5c0.3,0.2,0.5,0.4,0.6,0.5c0.1,0.2,0.2,0.3,0.2,0.3s-0.3-0.4-0.9-0.7
								c-0.3-0.1-0.7-0.2-1.1-0.2c-0.4,0.1-0.9,0.3-1.2,0.6c-0.1,0.2,0,0.4,0.3,0.4c0.2,0,0.5,0,0.7,0c0.4,0,0.8-0.1,1.2-0.2
								C459.7,381.2,460.1,381,460.1,381z"/>
						</g>
					</g>
					<g>
						<g>
							<path class="st1" d="M459.9,381.2c0,0-0.3-0.2-0.4-0.7c-0.1-0.2-0.1-0.5-0.1-0.9c0.1-0.3,0.2-0.7,0.6-0.9
								c0.3-0.1,0.8,0.4,0.9,0.6s-0.3,0.1-0.3,0.2c0,0.3-0.1,0.6-0.2,0.8C460.2,380.9,460,381.2,459.9,381.2c0-0.1,0.2-0.3,0.3-0.8
								c0.1-0.2,0.1-0.5,0.1-0.8s0-0.7-0.3-0.6s-0.4,0.5-0.5,0.7c-0.1,0.3,0,0.6,0,0.8C459.7,381,459.9,381.2,459.9,381.2z"/>
						</g>
					</g>
					<g>
						<g>
							<path class="st1" d="M476.6,372.3c0,0-0.5,0.2-1.2,0.6s-1.5,1.1-2.1,2.2c-0.5,1.1-0.6,2.2-0.6,3c0.1,0.8,0.3,1.3,0.2,1.3
								c0,0-0.1-0.1-0.1-0.3c-0.1-0.2-0.2-0.5-0.2-0.9c-0.1-0.8,0-2,0.5-3.1c0.6-1.1,1.5-1.9,2.2-2.3c0.4-0.2,0.7-0.3,0.9-0.4
								C476.5,372.3,476.6,372.3,476.6,372.3z"/>
						</g>
					</g>
					<g>
						<g>
							<path class="st1" d="M470.4,378.9c0,0-0.9,0.7-2.2,1.3c-1.3,0.6-2.4,0.9-2.4,0.9c0-0.1,1.1-0.5,2.3-1
								C469.3,379.4,470.3,378.8,470.4,378.9z"/>
						</g>
					</g>
					<g>
						<g>
							<path class="st1" d="M473.5,377.4c0.1,0,0,0.3,0,0.5c0,0.3,0,0.5,0,0.5c-0.1,0-0.2-0.2-0.2-0.5S473.4,377.4,473.5,377.4z"/>
						</g>
					</g>
					<g>
						<g>
							<path class="st1" d="M474,375.4c0.1,0,0,0.2-0.1,0.5c-0.1,0.2-0.2,0.4-0.3,0.4c-0.1,0,0-0.2,0.1-0.5
								C473.8,375.6,473.9,375.4,474,375.4z"/>
						</g>
					</g>
					<g>
						<g>
							<path class="st1" d="M475.4,374c0,0.1-0.2,0.2-0.4,0.3c-0.2,0.2-0.3,0.4-0.4,0.4s0-0.3,0.2-0.5
								C475.1,373.9,475.4,373.9,475.4,374z"/>
						</g>
					</g>
					<g>
						<g>
							<path class="st1" d="M476.4,373.1c0,0,0,0.2-0.1,0.3c-0.1,0.1-0.2,0.2-0.3,0.1c0,0,0-0.2,0.1-0.3
								C476.2,373.1,476.4,373.1,476.4,373.1z"/>
						</g>
					</g>
				</g>
			</g>
			<g>
				<g>
					<g>
						<g>
							<g>
								<g>
									<g>
										<g>
											<path class="st5" d="M456.7,169.6l-2.9-35.7l15,0.3c0,0,0.7-5.3-1.5-16.8c-1.4-7.1-6.1-11.4-11.4-14v-0.1l-0.5-0.1
												c-6.7-3.1-13.8-3.6-13.8-3.6l-18.4,0.2c0,0-14.1-1.8-21.9,8.3c-3,3.9-12.3,30.4-12.3,30.4l22.1,10.7l-2.1-14.7
												c0,0,0.4,10.6,1.8,14c0.8,1.9,2.9,7.7,2.9,7.7l-0.3,17.6L456.7,169.6z"/>
										</g>
									</g>
								</g>
							</g>
						</g>
						<g>
							<polygon class="st5" points="446.6,128.7 443.8,140.4 469.7,140.4 468,120.8 							"/>
						</g>
						<g>
							<g>
								<path class="st1" d="M469.7,140.4c0-0.1-1.3-0.2-3.4-0.3s-5-0.2-8.3-0.2c-3.2,0-6.2,0.2-8.3,0.3c-2.1,0.2-3.4,0.3-3.4,0.4
									c0,0.1,1.3,0,3.4,0c2.1-0.1,5-0.1,8.3-0.2c3.2,0,6.1,0,8.3,0C468.3,140.5,469.7,140.5,469.7,140.4z"/>
							</g>
						</g>
						<g>
							<g>
								<path class="st1" d="M445.5,120.7c-0.1,0-0.1,1.1-0.1,3c0,1.8,0.1,4.4,0.2,7.1c0.1,2.8,0.2,5.3,0.4,7.1c0.1,1.8,0.2,3,0.3,3
									c0.1,0,0.1-1.1,0.1-3c0-1.8-0.1-4.4-0.2-7.1c-0.1-2.8-0.2-5.3-0.4-7.1C445.6,121.8,445.5,120.7,445.5,120.7z"/>
							</g>
						</g>
						<g class="st6">
							<path d="M421.9,130.8c0,0,5.7,42.6,21.9,41.4c0,0,7.3-0.1,9.6-4.9v-1.9L421.9,130.8z"/>
						</g>
					</g>
				</g>
				<g class="st6">
					<polygon points="445.5,123.2 442.4,144.1 444.4,147.8 447.7,140.6 446.3,140.6 					"/>
				</g>
				<g>
					<g>
						<path class="st1" d="M413.9,156.1c0,0-0.2-0.3-0.4-1c-0.3-0.7-0.6-1.6-1-2.8c-0.8-2.4-1.7-5.7-2.5-9.4
							c-0.7-3.7-1.1-7.2-1.2-9.7c-0.1-1.2-0.1-2.3-0.1-3s0-1.1,0.1-1.1s0.1,1.5,0.4,4c0.2,2.5,0.6,5.9,1.4,9.6
							c0.7,3.7,1.6,7,2.3,9.4c0.3,1.1,0.6,2.1,0.8,2.8C413.8,155.7,413.9,156.1,413.9,156.1z"/>
					</g>
				</g>
				<g>
					<g>
						<path class="st1" d="M420.4,168.3c-0.1,0-0.5-0.9-0.9-2.1c-0.4-1.2-0.5-2.2-0.4-2.2s0.5,0.9,0.9,2.1
							C420.4,167.3,420.5,168.3,420.4,168.3z"/>
					</g>
				</g>
				<g>
					<g>
						<path class="st1" d="M422.6,168.2c-0.1,0-0.6-1.3-0.6-3.1s0.4-3.2,0.5-3.1c0.1,0,0,1.4,0,3.1
							C422.6,166.8,422.8,168.2,422.6,168.2z"/>
					</g>
				</g>
				<g>
					<g>
						<path class="st1" d="M411.7,149.6c-0.1,0.1-5.2-2.3-11.5-5.5c-6.3-3.1-11.3-5.8-11.3-5.9c0.1-0.1,5.2,2.3,11.5,5.5
							C406.7,146.8,411.8,149.4,411.7,149.6z"/>
					</g>
				</g>
			</g>
			<g>
				<g>
					<g>
						<g>
							<g>
								<g>
									<g>
										<g>
											<g>
												<path class="st3" d="M420.8,103.2c0.1-5.1,0.1-10.4,0.1-10.4s-6.5-1.3-7.6-9.8c-1.1-8.1,1.9-27.2,1.9-27.2l0,0
													c9.5-3.6,19.3-0.3,25.8,7.3l0,0l-1.6,41.1c-0.2,4.8-4.4,8.4-9.5,8.2l0,0C424.8,112.1,420.7,108,420.8,103.2z"/>
											</g>
										</g>
									</g>
									<g>
										<g>
											<g>
												<g>
													<path class="st1" d="M414.7,71.1c0,0.6,0.4,1.1,1,1.1s1.1-0.4,1.1-1s-0.4-1.1-1-1.1C415.3,70.1,414.8,70.5,414.7,71.1z
														"/>
												</g>
											</g>
										</g>
										<g>
											<g>
												<g>
													<g>
														<path class="st1" d="M414.3,69.6c0.1,0.1,1-0.4,2.1-0.4c1.2,0,2,0.6,2.1,0.5s-0.1-0.3-0.4-0.6c-0.4-0.3-1-0.6-1.7-0.6
															s-1.4,0.2-1.7,0.5C414.4,69.3,414.3,69.6,414.3,69.6z"/>
													</g>
												</g>
											</g>
										</g>
									</g>
									<g>
										<g>
											<g>
												<g>
													<path class="st1" d="M426.6,71.8c0,0.6,0.4,1.1,1,1.1s1.1-0.4,1.1-1s-0.4-1.1-1-1.1C427.2,70.8,426.7,71.2,426.6,71.8z
														"/>
												</g>
											</g>
										</g>
										<g>
											<g>
												<g>
													<g>
														<path class="st1" d="M426.6,70.4c0.1,0.1,1-0.4,2.1-0.4c1.2,0,2,0.6,2.1,0.5s-0.1-0.3-0.4-0.6c-0.4-0.3-1-0.6-1.7-0.6
															s-1.4,0.2-1.7,0.5C426.6,70,426.5,70.3,426.6,70.4z"/>
													</g>
												</g>
											</g>
										</g>
									</g>
									<g>
										<g>
											<g>
												<g>
													<path class="st1" d="M422.1,79c0-0.1-0.7-0.2-1.9-0.4c-0.3,0-0.6-0.1-0.6-0.3c-0.1-0.2,0.1-0.5,0.2-0.9
														c0.3-0.7,0.6-1.5,0.9-2.3c1.3-3.2,2.3-5.9,2.1-5.9c-0.1-0.1-1.3,2.5-2.6,5.7c-0.3,0.8-0.6,1.5-0.9,2.3
														c-0.1,0.3-0.3,0.7-0.2,1.2c0.1,0.2,0.3,0.4,0.5,0.5s0.4,0.1,0.5,0.1C421.3,79,422.1,79,422.1,79z"/>
												</g>
											</g>
										</g>
									</g>
									<g>
										<g>
											<g>
												<path class="st4" d="M420.9,92.8c0,0,5.7,0.5,11.5-2.7c0,0-2.9,5.8-11.4,4.8L420.9,92.8z"/>
											</g>
										</g>
									</g>
								</g>
							</g>
						</g>
					</g>
				</g>
				<g>
					<g>
						<path class="st1" d="M430.3,67c-0.2,0.4-1.1,0.2-2.1,0s-1.9-0.4-2-0.8s0.9-1,2.3-0.7C429.8,65.7,430.6,66.6,430.3,67z"/>
					</g>
				</g>
				<g>
					<g>
						<path class="st1" d="M418.7,65.3c-0.1,0.4-1,0.6-2.1,0.6s-2.1,0-2.2-0.4s0.8-1.1,2.1-1.1C417.8,64.3,418.8,64.8,418.7,65.3z"
							/>
					</g>
				</g>
				<g>
					<path class="st4" d="M422.1,81.8c-0.2-0.1-0.5,0.1-0.6,0.3c-0.1,0.3-0.1,0.6,0.2,0.8c0.2,0.2,0.6,0.2,0.8,0
						c0.2-0.2,0.3-0.6,0.2-0.8c-0.1-0.3-0.5-0.4-0.8-0.3"/>
				</g>
				<g>
					<g>
						<path class="st1" d="M422.4,81.9c0.1,0-0.2-0.3-0.7-0.2c-0.2,0.1-0.5,0.3-0.6,0.6c-0.1,0.3,0,0.8,0.4,1.1
							c0.4,0.3,0.8,0.2,1.1,0c0.3-0.2,0.4-0.6,0.4-0.8c-0.1-0.5-0.5-0.6-0.5-0.5s0.1,0.2,0.1,0.6c0,0.2-0.1,0.3-0.2,0.4
							s-0.4,0.1-0.5,0s-0.2-0.3-0.2-0.5s0.1-0.3,0.3-0.4C422.1,81.9,422.3,82,422.4,81.9z"/>
					</g>
				</g>
				<g>
					<g>
						<path class="st1" d="M437.1,73.2c-1,2.3-3.5,4.2-3.1,6.7c0.2,1.6,1.3,3.2,1.1,4.8c-0.3,2.1-2.4,3.5-2.7,5.5
							c-0.4,2.5,2.1,4.5,3,6.8c1.4,3.4-0.4,7.3-0.4,10.9c-0.1,5.7,4.8,11,10.4,11.4c2.3,0.2,4.9-0.5,6-2.5c1-1.6,0.8-3.7,1.4-5.5
							c0.9-2.7,3.4-4.6,4-7.4c1-5-5.1-9.2-4.7-14.3c0.2-2.2,1.5-4.1,2.1-6.2c0.8-2.8,0.1-5.9-1.8-8.1c-1.5-1.8-3.7-3-5-4.9
							c-1.5-2.2-1.5-5-2-7.6c-1.3-6.3-6.1-11.8-12.1-14c-6.1-2.2-13.2-1.1-18.3,2.8c0,0-1.5,6.6,5.3,7.7c6.8,1.1,9.9-0.2,10.7,2.5
							c0,0-0.8,3.2,2,6.2C435.7,71.1,438.3,70.4,437.1,73.2z"/>
					</g>
					<g>
						<g>
							<path class="st2" d="M447.9,118.9c0,0-0.2,0-0.6-0.1s-1-0.2-1.7-0.5c-1.4-0.5-3.5-1.7-5.2-3.9c-0.9-1.1-1.7-2.4-2.2-4
								c-0.6-1.5-0.9-3.3-0.9-5.1c0-1.8,0.2-3.8,0.7-5.7c0.3-1,0.6-1.9,1-2.9s0.8-1.9,1.1-2.9c0.3-1,0.2-2,0-2.9
								c-0.3-1-0.7-1.9-1.1-2.7c-0.4-0.9-0.9-1.8-1.2-2.7c-0.3-0.9-0.4-1.9-0.2-2.9c0.4-1.9,1.5-3.3,2.2-4.7
								c0.7-1.4,0.9-2.9,0.9-4.3c-0.1-2.7-1.3-4.7-2.2-5.9c-1-1.2-1.7-1.6-1.7-1.7c0,0,0.8,0.4,1.9,1.5c1,1.1,2.3,3.2,2.4,6
								c0.1,1.4-0.2,3-0.9,4.5c-0.7,1.5-1.8,2.9-2.1,4.6c-0.4,1.7,0.5,3.5,1.4,5.3c0.4,0.9,0.9,1.8,1.2,2.8c0.3,1,0.3,2.2,0,3.2
								s-0.8,2-1.1,2.9c-0.4,0.9-0.7,1.9-0.9,2.8c-0.5,1.9-0.8,3.8-0.7,5.6c0,3.6,1.2,6.8,2.9,8.9c1.7,2.2,3.6,3.3,5,3.9
								C447.1,118.7,447.9,118.8,447.9,118.9z"/>
						</g>
					</g>
					<g>
						<g>
							<path class="st2" d="M446.9,68.4c0,0-0.5,0.1-1.5,0.2s-2.4,0.2-4.1-0.1c-1.7-0.3-3.8-1.1-5.2-3.2c-0.7-1-0.9-2.2-1.4-3.4
								c-0.4-1.1-1.2-2.1-2.3-2.8c-2.2-1.4-4.8-1.6-7-1.8c-2.3-0.3-4.4-0.7-5.8-1.8c-1.5-1-2.2-2.4-2.4-3.3
								c-0.1-0.5-0.1-0.9-0.1-1.1c0-0.3,0.1-0.4,0.1-0.4c0.1,0-0.1,0.5,0.2,1.5c0.2,0.9,1,2.1,2.4,3.1s3.4,1.4,5.7,1.6
								c2.2,0.3,4.9,0.4,7.2,1.9c1.2,0.7,2.1,1.9,2.5,3.1c0.4,1.2,0.7,2.4,1.3,3.3c1.2,1.9,3.2,2.7,4.9,3.1c1.7,0.3,3.1,0.3,4,0.3
								C446.4,68.4,446.9,68.4,446.9,68.4z"/>
						</g>
					</g>
					<g>
						<g>
							<path class="st2" d="M444.4,60.3c0,0-0.4,0.2-1.2,0.2c-0.8,0-1.9-0.1-3.2-0.7c-0.6-0.3-1.3-0.7-1.9-1.3s-1.1-1.3-1.6-2.1
								c-0.9-1.5-1.8-3.4-3.6-4.2c-1.8-0.8-3.8-0.6-5.6-0.5c-1.8,0.2-3.4,0.2-4.8,0s-2.4-0.8-3-1.3c-0.3-0.3-0.5-0.5-0.6-0.7
								s-0.2-0.3-0.1-0.3c0,0,0.3,0.3,0.9,0.8s1.6,0.9,2.9,1.1c1.3,0.2,2.9,0.1,4.7-0.1c1.8-0.1,3.8-0.4,5.9,0.5
								c1,0.4,1.8,1.2,2.4,2s1,1.7,1.5,2.4c0.4,0.8,0.9,1.5,1.4,2s1.1,1,1.7,1.3c1.2,0.6,2.3,0.8,3,0.8
								C444,60.3,444.4,60.2,444.4,60.3z"/>
						</g>
					</g>
					<g>
						<g>
							<path class="st2" d="M450.9,116.7c-0.1,0,0.3-0.7,0.6-1.9c0.4-1.2,0.7-3.1,0.7-5.4c-0.1-2.3-0.6-5-2.1-7.6
								c-0.7-1.3-1.8-2.5-2.7-3.9c-0.4-0.7-0.8-1.5-1-2.4s-0.1-1.8,0.2-2.7c0.6-1.7,1.6-3.2,1.8-4.8c0.3-1.6-0.5-3-1.3-4.3
								c-0.4-0.7-0.8-1.3-1.1-2c-0.3-0.7-0.5-1.4-0.6-2.1c-0.2-1.4,0-2.7,0.1-3.8c0.3-2.3,0.1-4.2-0.5-5.3c-0.5-1.2-1.2-1.5-1.2-1.6
								c0,0,0,0,0.1,0.1c0.1,0,0.2,0.1,0.3,0.2c0.3,0.2,0.6,0.6,0.9,1.2c0.6,1.2,0.9,3.1,0.7,5.4c-0.1,1.2-0.2,2.4-0.1,3.7
								c0.1,1.3,0.8,2.6,1.6,3.9c0.4,0.7,0.8,1.3,1.1,2.1c0.3,0.8,0.4,1.7,0.3,2.5c-0.2,1.7-1.3,3.2-1.8,4.9
								c-0.3,0.8-0.4,1.6-0.2,2.4c0.2,0.8,0.5,1.5,0.9,2.2c0.9,1.4,2,2.6,2.7,3.9c1.5,2.7,2.1,5.5,2.1,7.9c0,2.3-0.4,4.2-0.8,5.4
								c-0.2,0.6-0.4,1.1-0.6,1.4C451,116.6,450.9,116.7,450.9,116.7z"/>
						</g>
					</g>
				</g>
			</g>
			<g>
				<g>
					<path class="st1" d="M410.2,303c0,0-6.7-63.8-7.1-87.4s10.6-46.9,10.6-46.9l43.1-1.8c0,0,8.5,23.9,8.7,34
						c0.3,19.5-5.2,38.8-4.6,54.3l1.4,47.8"/>
				</g>
				<g>
					<g>
						<path class="st7" d="M463.7,224.6c0,0-0.2,0.2-0.7,0.5c-0.1,0.1-0.3,0.2-0.4,0.3s-0.3,0.3-0.4,0.4c-0.3,0.3-0.7,0.6-1,1.1
							c-1.4,1.7-2.4,4.7-3.4,8.5c-0.5,1.9-1.1,4-2.2,6.1c-0.3,0.5-0.6,1-1,1.5c-0.2,0.2-0.4,0.5-0.6,0.7l-0.7,0.7
							c-0.9,0.9-2,1.6-3.2,2.1c-2.4,1.1-5.1,1.6-7.6,2.8s-4.4,3.6-5.5,6.3c-1.2,2.7-1.9,5.6-3,8.2c-1,2.6-2.3,5.2-4.5,6.8
							c-2.1,1.7-4.8,2.1-7.1,2.2c-2.3,0.1-4.5,0.1-6.4,0.4s-3.6,0.9-4.8,1.8c-1.2,0.9-1.9,2.1-2.2,3.2c-0.3,1-0.3,1.9-0.2,2.5
							c0.1,0.6,0.3,0.8,0.2,0.8c0,0-0.2-0.3-0.3-0.8c-0.2-0.6-0.2-1.5,0.1-2.5c0.3-1.1,1-2.3,2.3-3.3c1.2-1,3-1.7,4.9-2
							c2-0.3,4.1-0.3,6.4-0.4c2.3-0.2,4.8-0.6,6.8-2.2c2-1.5,3.3-4,4.3-6.6s1.7-5.5,3-8.2c1.2-2.8,3.2-5.3,5.8-6.5
							c2.6-1.3,5.3-1.8,7.7-2.8c1.2-0.5,2.3-1.1,3.1-2l0.6-0.6c0.2-0.2,0.4-0.5,0.5-0.7c0.4-0.4,0.6-1,0.9-1.5c1.1-2,1.7-4.1,2.2-6
							c1-3.8,2.1-6.9,3.6-8.6c0.3-0.5,0.7-0.8,1-1.1c0.2-0.1,0.3-0.3,0.4-0.4c0.1-0.1,0.3-0.2,0.4-0.3
							C463.5,224.7,463.7,224.5,463.7,224.6z"/>
					</g>
				</g>
				<g>
					<g>
						<path class="st7" d="M464,195c0,0,0,0.3,0.1,0.9c0,0.6-0.1,1.4-0.3,2.4c-0.5,2.1-2,4.9-4.9,7.5c-1.4,1.3-3.1,2.6-5,3.7
							c-1.9,1.1-4.1,2.2-6.2,3.5c-2.2,1.2-4.4,2.6-6.4,4.5c-2,1.8-3.5,4.2-4.8,6.8c-1.4,2.5-2.6,5.1-4.2,7.4c-0.8,1.1-1.7,2.1-2.7,3
							s-2.1,1.6-3.3,2.2c-2.3,1.2-4.6,1.9-6.7,2.6c-2.1,0.7-4.1,1.2-5.9,2c-1.7,0.7-3.3,1.5-4.5,2.4s-2.2,1.8-2.8,2.6
							c-1.3,1.6-1.6,2.8-1.7,2.8c0,0,0.1-0.3,0.3-0.8c0.2-0.5,0.6-1.3,1.3-2.1c0.6-0.9,1.6-1.8,2.8-2.7c1.2-0.9,2.8-1.8,4.5-2.5
							c1.8-0.8,3.8-1.4,5.9-2c2.1-0.7,4.4-1.4,6.6-2.6c1.1-0.6,2.2-1.3,3.2-2.1c1-0.9,1.9-1.8,2.6-2.9c1.6-2.2,2.8-4.8,4.1-7.3
							c1.4-2.6,2.9-5,4.9-6.9s4.3-3.3,6.5-4.5s4.3-2.3,6.3-3.4c1.9-1.1,3.6-2.3,5-3.6c2.8-2.5,4.4-5.3,4.9-7.3
							C464.1,196.2,463.9,195,464,195z"/>
					</g>
				</g>
				<g>
					<g>
						<path class="st7" d="M403.3,219c0,0,0-0.1-0.1-0.2c0-0.1-0.1-0.3-0.2-0.6c-0.1-0.5-0.2-1.4,0.1-2.4c0.6-2,2.8-4.6,6.3-5.8
							c1.8-0.6,3.8-1,5.9-1.5c2.1-0.6,4.3-1.3,6-3.1c0.8-0.9,1.5-1.9,2.1-3s1-2.3,1.5-3.6c0.9-2.5,1.6-5.2,3.2-7.7
							c1.5-2.5,4-4.2,6.5-5.1c2.5-0.9,5.1-1.3,7.5-1.9c2.4-0.5,4.6-1.2,6.5-2.2c1.9-1.1,3.4-2.5,4.4-4c2.2-3,2.7-6.1,2.8-8.1
							c0-2.1-0.3-3.2-0.2-3.2c0,0,0.4,1.1,0.4,3.2c0,2.1-0.5,5.2-2.7,8.3c-1.1,1.5-2.6,3-4.5,4.1s-4.2,1.8-6.6,2.3
							c-2.4,0.6-4.9,1-7.4,1.9s-4.8,2.5-6.3,4.9s-2.2,5.1-3.1,7.6c-0.5,1.3-0.9,2.5-1.5,3.7s-1.4,2.2-2.2,3.1
							c-1.8,1.8-4.1,2.6-6.2,3.1s-4.1,0.9-5.9,1.5c-3.5,1.2-5.7,3.6-6.3,5.5c-0.3,1-0.3,1.8-0.2,2.3
							C403.2,218.7,403.3,219,403.3,219z"/>
					</g>
				</g>
				<g>
					<g>
						<path class="st7" d="M460.3,273c0,0,0,0.2,0.1,0.6c0,0.4,0,1-0.2,1.8c-0.4,1.5-1.5,3.6-3.8,5.4c-1.1,0.9-2.4,1.7-4,2.4
							c-1.5,0.7-3.2,1.2-5,1.7s-3.6,1.1-5.4,2c-1.8,0.8-3.5,2-4.9,3.6c-1.5,1.5-2.7,3.2-4.1,4.7s-3,2.7-4.6,3.6
							c-3.3,1.8-6.7,2.4-9.5,2.5c-2.8,0-5.1-0.6-6.5-1.1c-0.7-0.3-1.3-0.5-1.7-0.7c-0.4-0.2-0.6-0.3-0.6-0.3s0.2,0.1,0.6,0.2
							c0.4,0.2,0.9,0.4,1.7,0.6c1.5,0.5,3.7,1,6.5,0.9s6.1-0.7,9.3-2.5c1.6-0.9,3.1-2.1,4.5-3.5c1.4-1.5,2.6-3.1,4.1-4.7
							s3.2-2.9,5.1-3.7c1.8-0.9,3.7-1.4,5.5-2c1.8-0.5,3.4-1,5-1.7c1.5-0.6,2.8-1.4,3.9-2.2c2.2-1.7,3.4-3.7,3.8-5.2
							C460.4,273.9,460.2,273,460.3,273z"/>
					</g>
				</g>
			</g>
			<g>
				<path class="st3" d="M455.4,140.4l-8.3,0.2c-0.5,2.8-1.9,4.7-1.9,4.7c-7-12.1-12.4-28.3-13.7-34.8c0.2-0.7,0.4-1.4,0.7-2.2
					c0.3-0.9,0-2.7-0.1-3.7c-0.2-1.4-0.6-3.4-0.8-4.3c-0.4-2.8-0.8-3.2-1.8-2.9c-1.3,0.4,0.5,7.7-0.5,7.9c-0.6,0.1-1.3-2.4-1.5-4.5
					s-1.1-8.4-1.8-8.8c-1-0.6-1.9,0.4-1.6,2.4c0.3,2.1,0.6,8.2-0.5,8.3c-1.1,0.1-2-10.4-2-10.4s0.2-2.3-1.1-2.2
					c-2.3,0.1-0.5,11.1-0.3,12.2c0.1,0.7-1,0.9-1.1,0.1s-0.7-10.5-3-10.4c-1.8,0.1,1.4,9.1,0.4,11.2s-1.7-7.1-3.4-7
					c-0.6,0-1.1,0.2,0.1,5.4c0.6,2.8,2.4,8,4,12.2c2.7,14.4,14.4,60.7,32.9,52.2c10.3-4.7,14.5-25.7,14.5-25.7L455.4,140.4z"/>
				<g>
					<g>
						<path class="st4" d="M419.8,103.2c0,0,0.1,0,0.2,0s0.4-0.2,0.4-0.6c0-0.6-0.1-1.5-0.3-2.7c-0.1-1.2-0.5-2.6-0.5-4.3
							c0-0.8,0-1.7,0.1-2.7c0-0.5,0-1,0.1-1.4c0.1-0.5,0.4-1,0.7-0.9l0,0l0,0c0.4,0,0.6,0.3,0.7,0.7c0.1,0.4,0.2,0.9,0.1,1.3l0,0
							l0,0c0.2,2.6,0.5,5.4,1.1,8.3c0.1,0.4,0.2,0.7,0.3,1.1c0.1,0.2,0.1,0.4,0.2,0.6c0.1,0.1,0.1,0.2,0.2,0.3
							c0.1,0.1,0.2,0.2,0.4,0.3c0.4,0,0.5-0.3,0.6-0.5s0.1-0.4,0.2-0.6c0.1-0.4,0.1-0.8,0.2-1.2c0.1-1.6,0.1-3.3-0.1-5
							c0-0.9-0.3-1.7-0.1-2.5c0.1-0.4,0.2-0.8,0.5-0.9c0.1-0.1,0.3-0.1,0.4-0.1s0.2,0.1,0.2,0.1c0.1,0.1,0.1,0,0.1,0.1
							c0.3,0.7,0.5,1.6,0.7,2.5s0.3,1.8,0.5,2.7c0.1,0.9,0.3,1.8,0.4,2.8c0.1,0.9,0.2,1.9,0.5,2.8c0.1,0.5,0.3,0.9,0.5,1.4
							c0.1,0.2,0.2,0.5,0.4,0.7c0.1,0.1,0.3,0.3,0.6,0.2c0.3-0.1,0.4-0.3,0.4-0.4c0.2-0.6,0.1-1.1,0.1-1.6s-0.1-1-0.1-1.5
							c-0.1-0.8-0.2-1.7-0.2-2.5c0-0.4,0-0.8,0-1.2c0-0.2,0.1-0.4,0.1-0.5s0.1-0.1,0.1-0.1l0,0h0.1c0.7-0.3,0.9,0.6,1.1,1.4
							s0.3,1.6,0.4,2.4c0.3,1.6,0.6,3.1,0.8,4.6c0.1,0.7,0.1,1.5-0.1,2.2s-0.5,1.4-0.7,2.1v0.1v0.1c1.2,5.4,2.9,10.2,4.5,14.5
							s3.2,8,4.6,11s2.6,5.3,3.5,6.9c0.4,0.8,0.8,1.3,1,1.8c0.2,0.4,0.4,0.6,0.4,0.6s-0.1-0.2-0.3-0.6c-0.2-0.5-0.6-1.1-1-1.8
							c-0.8-1.6-2-4-3.4-7s-2.9-6.7-4.4-11s-3.2-9.1-4.4-14.4v0.1c0.2-0.7,0.5-1.4,0.7-2.1c0.3-0.8,0.2-1.6,0.1-2.4
							c-0.2-1.6-0.5-3.1-0.8-4.7c-0.2-0.8-0.2-1.6-0.4-2.4c-0.1-0.4-0.2-0.8-0.4-1.2c-0.1-0.2-0.3-0.4-0.6-0.6
							c-0.3-0.1-0.6-0.1-0.8,0h-0.2c-0.1,0-0.2,0.1-0.2,0.1c-0.1,0.1-0.2,0.2-0.3,0.4c-0.1,0.2-0.1,0.5-0.2,0.7c0,0.4,0,0.9,0,1.3
							c0,0.8,0.1,1.7,0.2,2.5c0,0.5,0.1,1,0.1,1.5s0,1-0.1,1.3c0,0.1-0.1,0.1,0,0.1l0,0c0,0,0,0.1,0,0l0,0l0,0l0,0c0,0,0,0-0.1-0.1
							s-0.2-0.3-0.3-0.5c-0.2-0.4-0.3-0.9-0.4-1.3c-0.2-0.9-0.4-1.8-0.5-2.8c-0.1-0.9-0.2-1.9-0.4-2.8c-0.1-0.9-0.3-1.8-0.5-2.7
							c-0.2-0.9-0.3-1.8-0.8-2.7c0-0.1-0.2-0.3-0.3-0.4c-0.1-0.1-0.2-0.1-0.4-0.2c-0.3-0.1-0.6,0-0.8,0.1c-0.5,0.3-0.6,0.8-0.7,1.3
							s-0.1,0.9,0,1.4c0.1,0.4,0.1,0.8,0.1,1.3c0.1,1.7,0.2,3.3,0.1,4.9c0,0.4-0.1,0.8-0.1,1.2c0,0.2-0.1,0.4-0.2,0.5
							c0,0.1-0.1,0.1-0.1,0.2s-0.1,0-0.1,0.1c0.1-0.1,0,0,0-0.1c0,0-0.1-0.1-0.1-0.2c-0.1-0.2-0.1-0.3-0.2-0.5
							c-0.1-0.4-0.2-0.7-0.3-1.1c-0.6-2.9-0.9-5.7-1.1-8.3l0,0c0-0.5,0-1-0.2-1.5c-0.1-0.2-0.2-0.5-0.4-0.7
							c-0.2-0.2-0.5-0.3-0.7-0.3h0.1c-0.4-0.1-0.7,0.2-0.9,0.4c-0.2,0.2-0.2,0.5-0.3,0.8c-0.1,0.5-0.1,1-0.1,1.5c0,1,0,1.9,0,2.7
							c0,1.7,0.4,3.1,0.6,4.3c0.2,1.2,0.3,2.1,0.4,2.7C420.1,102.9,419.8,103.1,419.8,103.2C419.9,103.1,419.8,103.1,419.8,103.2z"
							/>
					</g>
				</g>
			</g>
			<path class="st3" d="M354.7,154.2c0,0-2.8-0.1-5.8,0.7c-5.2,1.4-14.1,6.8-14.4,13.4h6.5c0,0-3.6,7.7-2.6,7
				c2.8-1.9,8.3-7.4,8.3-7.4L354.7,154.2z"/>
			<g>
				<g>
					<g>
						<path class="st1" d="M443,38c-0.1,0-0.7-5.3-1.3-12c-0.6-6.6-0.9-12-0.8-12s0.7,5.3,1.3,12C442.8,32.6,443.2,38,443,38z"/>
					</g>
				</g>
				<g>
					<g>
						<path class="st1" d="M471.4,14.4c0.1,0.1-4.3,6.4-9.8,14.2s-10.1,14-10.2,13.9s4.3-6.4,9.8-14.2
							C466.8,20.5,471.3,14.3,471.4,14.4z"/>
					</g>
				</g>
				<g>
					<g>
						<path class="st1" d="M483.2,43.1c0,0.1-5.1,1.3-11.4,2.6s-11.5,2.2-11.5,2.1c0-0.1,5.1-1.3,11.4-2.6
							C478.1,43.9,483.2,43,483.2,43.1z"/>
					</g>
				</g>
			</g>
		</g>
		<g>
			<g>
				<path class="st8" d="M143.1,180.5l-35.4,181.8l-4.6,23.8l236.1-1.2c10.6-0.1,20-9.5,23.4-23.4l41.9-171.6
					c2.6-10.6-3.1-21.6-11.1-21.6l-238.9,0.3C149.1,168.5,144.5,173.4,143.1,180.5z"/>
			</g>
			<g class="st9">
				<path d="M143.1,180.5l-35.4,181.8l-4.6,23.8l236.1-1.2c10.6-0.1,20-9.5,23.4-23.4l41.9-171.6c2.6-10.6-3.1-21.6-11.1-21.6
					l-238.9,0.3C149.1,168.5,144.5,173.4,143.1,180.5z"/>
			</g>
			<g>
				<path class="st5" d="M316.6,350l-25-201.4c-1-8.3-7.6-14.4-15.4-14.4l-54.8,0.2c-4.1,0-7.9,1.7-10.8,4.8l-26,27.7l-152.4,0.8
					c-9.3,0-16.5,8.9-15.2,18.8l23.2,186.2c1,8.2,7.6,14.4,15.3,14.4l265.6-0.5c29.6,0.6,32.4-8.1,32.4-8.1
					C319.6,385.8,316.6,350,316.6,350z"/>
			</g>
			<g class="st9">
				<polygon class="st0" points="202,309.7 193.1,319.3 124.1,257.2 133,247.6 				"/>
				<polygon class="st0" points="189.3,245.5 199.2,254.4 136.8,321.4 126.9,312.5 				"/>
			</g>
		</g>
	</g>
	<g>
		<g>
			<g>
				<g>
					<path class="st5" d="M340.6,49.7c-0.6-0.3-1.1-0.9-1.1-1.6l-0.4-9.3c0-0.6,0.2-1.1,0.7-1.5s1-0.5,1.6-0.4
						c1.5,0.4,3.1,0,4.5-0.9c1.3-0.8,2.1-2.1,2.3-3.4c0.2-1.3-0.2-2.8-1.1-4c-1-1.3-2.5-2.2-3.9-2.4c-3-0.3-6.3,2-7.1,5
						c-0.3,1-1.3,1.6-2.3,1.3s-1.6-1.3-1.3-2.3c1.3-4.8,6.3-8.3,11.1-7.8c2.5,0.3,4.9,1.7,6.5,3.8c1.5,2,2.2,4.5,1.8,6.9
						c-0.4,2.3-1.8,4.5-3.9,5.9c-1.5,1-3.3,1.6-5.1,1.7l0.3,7.2c0,1-0.8,1.9-1.8,1.9C341.2,49.9,340.9,49.8,340.6,49.7z"/>
				</g>
			</g>
			<g>
				<g>
					<path class="st5" d="M343.4,53.5c0.1,0.8-0.6,1.6-1.4,1.6c-0.8,0.1-1.6-0.6-1.6-1.4c-0.1-0.8,0.6-1.6,1.4-1.6
						C342.6,52.1,343.3,52.7,343.4,53.5z"/>
				</g>
			</g>
		</g>
		<g>
			<g>
				<g>
					<path class="st1" d="M308.5,36.6c0,0,0-0.2,0.1-0.6c0-0.4,0.1-1,0.2-1.8c0-0.8,0.2-1.7,0.5-2.9c0.1-0.6,0.2-1.2,0.4-1.8
						c0.2-0.6,0.4-1.3,0.6-2c1-2.8,2.5-6.2,5-9.5s6-6.6,10.5-9.1c2.2-1.3,4.8-2.2,7.4-3.1c2.7-0.6,5.6-1.2,8.5-1.1
						c1.5-0.1,3,0.1,4.5,0.3c0.8,0.1,1.5,0.3,2.3,0.4s1.5,0.3,2.3,0.6c3.1,0.8,6.1,2.2,8.9,4.1c5.7,3.6,10.6,9.5,13.2,16.6
						c1.3,3.6,2,7.5,2,11.4c0.1,4-0.7,8-2.1,11.7l-0.5,1.1l-0.1,0.2l0.1,0.1c2.5,5.8,5,11.4,7.4,16.9l0.4-0.5
						c-5.2-2-10.2-3.9-15-5.8l-0.2-0.1l-0.1,0.1c-4.2,4-9.1,6.7-14.1,8.2c-5,1.4-10.1,1.5-14.7,0.7s-8.8-2.6-12.3-4.9
						c-3.5-2.3-6.3-5-8.4-7.9c-2.1-2.8-3.5-5.8-4.6-8.4c-0.9-2.7-1.5-5-1.8-7c-0.1-1-0.2-1.8-0.3-2.6c0-0.7,0-1.4,0-1.9s0-0.9,0-1.2
						C308.5,36.8,308.5,36.6,308.5,36.6s0,0.1,0,0.4c0,0.3,0,0.7,0,1.2s0,1.2,0,1.9c0.1,0.8,0.2,1.6,0.3,2.6c0.2,2,0.8,4.4,1.7,7.1
						c1,2.6,2.4,5.6,4.6,8.5s5,5.7,8.5,8s7.7,4.2,12.4,5c4.7,0.9,9.8,0.8,15-0.6c5.1-1.4,10.2-4.2,14.4-8.3l-0.3,0.1
						c4.8,1.9,9.8,3.8,15,5.8l0.8,0.3l-0.3-0.8c-2.4-5.5-4.8-11.2-7.3-16.9v0.3l0.5-1.2c1.4-3.9,2.2-8,2.1-12c0-4-0.7-8-2-11.7
						c-2.7-7.3-7.7-13.2-13.5-16.9c-2.9-1.8-6-3.3-9.1-4.1c-0.8-0.3-1.6-0.4-2.3-0.6c-0.8-0.1-1.6-0.3-2.3-0.4
						c-1.6-0.1-3.1-0.3-4.6-0.3c-3-0.1-5.9,0.5-8.7,1.2c-2.7,0.8-5.3,1.8-7.5,3.1c-4.6,2.6-8.1,5.9-10.6,9.3s-4,6.8-4.9,9.7
						c-0.2,0.7-0.4,1.4-0.6,2s-0.3,1.3-0.4,1.8c-0.2,1.1-0.4,2.1-0.4,2.9c-0.1,0.8-0.1,1.4-0.1,1.8
						C308.5,36.4,308.5,36.6,308.5,36.6z"/>
				</g>
			</g>
		</g>
	</g>
</g>
</svg>
